<?xml version="1.0" encoding="UTF-8"?>
<!DOCTYPE svg PUBLIC "-//W3C//DTD SVG 1.1//EN" "http://www.w3.org/Graphics/SVG/1.1/DTD/svg11.dtd">
<svg xmlns="http://www.w3.org/2000/svg" version="1.1" width="512px" height="512px" style="shape-rendering:geometricPrecision; text-rendering:geometricPrecision; image-rendering:optimizeQuality; fill-rule:evenodd; clip-rule:evenodd" xmlns:xlink="http://www.w3.org/1999/xlink">
<g><path style="opacity:1" fill="#212121" d="M 102.5,71.5 C 204.501,71.3333 306.501,71.5 408.5,72C 424.667,76.1667 434.833,86.3333 439,102.5C 439.667,204.5 439.667,306.5 439,408.5C 434.833,424.667 424.667,434.833 408.5,439C 306.5,439.667 204.5,439.667 102.5,439C 86.3333,434.833 76.1667,424.667 72,408.5C 71.3333,306.5 71.3333,204.5 72,102.5C 76.3489,86.3186 86.5156,75.9852 102.5,71.5 Z"/></g>
<g><path style="opacity:1" fill="#37474f" d="M 255.5,87.5 C 255.5,136.833 255.5,186.167 255.5,235.5C 240.035,268.264 224.702,301.097 209.5,334C 210.704,340.106 214.371,342.439 220.5,341C 222.286,340.215 223.786,339.049 225,337.5C 234.88,317.075 244.714,296.742 254.5,276.5C 255.499,325.33 255.832,374.33 255.5,423.5C 205.499,423.667 155.499,423.5 105.5,423C 96.1292,419.631 90.2959,413.131 88,403.5C 87.3333,304.167 87.3333,204.833 88,105.5C 91.1667,97 97,91.1667 105.5,88C 155.499,87.5 205.499,87.3333 255.5,87.5 Z"/></g>
<g><path style="opacity:1" fill="#455b64" d="M 255.5,87.5 C 304.834,87.3333 354.168,87.5 403.5,88C 413.131,90.2959 419.631,96.1292 423,105.5C 423.667,205.5 423.667,305.5 423,405.5C 419.74,414.427 413.573,420.261 404.5,423C 354.834,423.5 305.168,423.667 255.5,423.5C 255.832,374.33 255.499,325.33 254.5,276.5C 270.571,243.524 286.238,210.357 301.5,177C 300.008,170.582 296.008,168.249 289.5,170C 288.333,171.167 287.167,172.333 286,173.5C 276.059,194.381 265.892,215.048 255.5,235.5C 255.5,186.167 255.5,136.833 255.5,87.5 Z"/></g>
<g><path style="opacity:1" fill="#f6f8f8" d="M 254.5,276.5 C 244.714,296.742 234.88,317.075 225,337.5C 223.786,339.049 222.286,340.215 220.5,341C 214.371,342.439 210.704,340.106 209.5,334C 224.702,301.097 240.035,268.264 255.5,235.5C 265.892,215.048 276.059,194.381 286,173.5C 287.167,172.333 288.333,171.167 289.5,170C 296.008,168.249 300.008,170.582 301.5,177C 286.238,210.357 270.571,243.524 254.5,276.5 Z"/></g>
<g><path style="opacity:1" fill="#f6f8f8" d="M 195.5,208.5 C 204.889,207.387 208.389,211.387 206,220.5C 191.552,232.297 177.052,243.964 162.5,255.5C 177.052,267.036 191.552,278.703 206,290.5C 208.785,297.268 206.618,301.268 199.5,302.5C 197.366,302.485 195.366,301.985 193.5,301C 176.333,287.167 159.167,273.333 142,259.5C 140.348,254.154 141.848,249.987 146.5,247C 163.266,234.629 179.599,221.796 195.5,208.5 Z"/></g>
<g><path style="opacity:1" fill="#f6f8f8" d="M 308.5,207.5 C 311.794,207.259 314.794,208.092 317.5,210C 334.667,223.833 351.833,237.667 369,251.5C 370.652,256.846 369.152,261.013 364.5,264C 348.833,276.333 333.167,288.667 317.5,301C 310.245,304.542 305.579,302.542 303.5,295C 303.625,293.373 304.125,291.873 305,290.5C 319.448,278.703 333.948,267.036 348.5,255.5C 333.948,243.964 319.448,232.297 305,220.5C 302.343,215.084 303.51,210.75 308.5,207.5 Z"/></g>
</svg>
